<?xml version="1.0" standalone="no"?>
<!DOCTYPE svg PUBLIC "-//W3C//DTD SVG 20010904//EN"
 "http://www.w3.org/TR/2001/REC-SVG-20010904/DTD/svg10.dtd">
<svg version="1.0" xmlns="http://www.w3.org/2000/svg"
 width="460.000000pt" height="460.000000pt" viewBox="0 0 460.000000 460.000000"
 preserveAspectRatio="xMidYMid meet">
<metadata>
Created by potrace 1.14, written by Peter Selinger 2001-2017
</metadata>
<g transform="translate(0.000000,460.000000) scale(0.100000,-0.100000)"
fill="#000000" stroke="none">
<path d="M0 2300 l0 -2300 2300 0 2300 0 0 2300 0 2300 -2300 0 -2300 0 0
-2300z m3291 1120 c50 -14 122 -80 151 -138 21 -44 23 -59 23 -227 0 -173 -1
-182 -26 -236 -30 -64 -94 -121 -154 -138 -27 -7 -219 -11 -581 -11 -622 0
-616 1 -695 -79 -80 -79 -79 -73 -79 -695 0 -362 -4 -554 -11 -581 -17 -60
-74 -124 -138 -154 -54 -25 -63 -26 -236 -26 -168 0 -183 2 -227 23 -58 29
-124 101 -138 151 -6 23 -10 410 -10 1079 l0 1042 1043 0 c668 0 1055 -4 1078
-10z m19 -1541 c85 -38 133 -103 150 -201 6 -37 10 -162 8 -303 l-3 -240 -240
-3 c-141 -2 -266 2 -303 8 -98 17 -163 65 -201 150 -18 40 -21 66 -21 221 0
208 9 247 76 313 66 66 99 74 309 75 161 0 185 -2 225 -20z"/>
</g>
</svg>
